<svg width="57" height="44" viewBox="0 0 57 44" fill="none" xmlns="http://www.w3.org/2000/svg">
<path d="M22.2715 1.20508H33.7832C35.0355 1.20513 36.2237 1.75462 37.1309 2.81152L37.1338 2.81445C37.1574 2.84185 37.179 2.87088 37.1982 2.90137L37.1992 2.90332L40.4453 8.02051L40.5078 8.11914L40.5889 8.20508C41.0835 8.72628 41.8437 9.20508 42.667 9.20508H50.0479L50.2861 9.21191C51.4727 9.27197 52.5986 9.76937 53.4424 10.6123C54.286 11.4553 54.7828 12.5792 54.8428 13.7637L54.8496 14.001V38C54.848 39.2705 54.3419 40.4888 53.4424 41.3877C52.5423 42.2869 51.3212 42.7936 50.0479 42.7949H6.00684C4.73351 42.7935 3.51332 42.2868 2.61328 41.3877C1.76945 40.5447 1.27188 39.4209 1.21191 38.2363L1.20508 37.999V14.0088C1.2064 12.7377 1.71321 11.5183 2.61328 10.6191C3.51328 9.72022 4.73367 9.21429 6.00684 9.21289H7.71191V7.00781C7.71191 6.7976 7.79527 6.59536 7.94434 6.44629C8.09361 6.29716 8.29717 6.21289 8.50879 6.21289H11.5117C11.7232 6.21301 11.926 6.29727 12.0752 6.44629C12.2243 6.59536 12.3076 6.7976 12.3076 7.00781V9.21289H13.5137C14.0328 9.21277 14.4608 9.01163 14.7559 8.82129C15.0562 8.62753 15.3013 8.39226 15.4795 8.19824L15.5527 8.11816L15.6104 8.02734L18.8555 2.90234L18.8564 2.90137C18.8757 2.87085 18.8973 2.84182 18.9209 2.81445L18.9238 2.81152C19.8309 1.75462 21.0192 1.20516 22.2715 1.20508Z" stroke="#152349" stroke-width="2.41096"/>
<path fill-rule="evenodd" clip-rule="evenodd" d="M23.2507 21.3961C20.9827 21.5695 19.1023 21.9315 18.093 22.3888C16.4129 23.1502 14.5429 24.9651 13.0245 27.3078C12.1351 28.68 11.9354 28.9095 11.064 29.561C10.3819 30.0711 9.98098 30.0994 8.88464 29.7156C7.92852 29.3809 7.76683 28.9231 8.47553 28.5572C8.9895 28.2919 9.48416 27.1093 9.39736 26.3537L9.34794 25.9247L7.95802 25.9716C6.36192 26.0252 6.05274 26.1706 5.65337 27.0547C5.28396 27.8725 5.41415 28.3715 6.06417 28.6283C7.00438 28.9997 7.44992 29.692 6.88762 29.9073C6.76608 29.9539 6.38385 30.3491 6.03822 30.7856C5.51901 31.4412 5.4126 31.6905 5.42557 32.2204L5.44133 32.8617L5.60318 32.3578C5.7885 31.781 6.82044 30.7806 7.23016 30.7806C7.38151 30.7806 7.61857 30.9713 7.75679 31.2046C8.16265 31.8884 8.66549 32.2682 9.73403 32.6974L10.7379 33.1007L9.92306 32.3876C9.1654 31.7247 8.65298 31.0173 8.65298 30.6342C8.65298 30.5337 9.15768 30.4723 9.98391 30.4723C11.2426 30.4723 11.3436 30.4472 11.8426 30.0099C12.1327 29.7555 12.4428 29.5474 12.5316 29.5474C12.7369 29.5474 14.2769 30.5634 14.526 30.8633C14.91 31.325 14.962 31.0689 14.5941 30.5278C14.3843 30.2194 14.2127 29.8987 14.2127 29.8153C14.2127 29.6715 15.2598 29.6837 25.0232 29.942C26.5946 29.9835 30.8558 29.9394 34.4925 29.844C38.1293 29.7484 41.1436 29.7091 41.191 29.7564C41.2385 29.8037 41.1297 30.0923 40.9493 30.3974C40.4949 31.166 40.5284 31.1845 41.2776 30.5788C42.6407 29.4769 43.0936 29.3991 43.7742 30.1497C44.029 30.4307 44.2426 30.4723 45.4327 30.4723C46.2835 30.4723 46.7987 30.5334 46.7987 30.6342C46.7987 31.0176 46.2861 31.7247 45.5286 32.3863L44.7138 33.0981L45.3702 32.8409C45.8373 32.6578 46.0316 32.4905 46.0444 32.2602C46.0588 31.9999 46.0761 31.9895 46.1329 32.2066C46.1718 32.3549 46.2627 32.4763 46.3349 32.4763C46.5632 32.4763 47.4033 31.6983 47.6802 31.2305C47.8266 30.983 48.0702 30.7806 48.2215 30.7806C48.6737 30.7806 49.6896 31.8129 49.8573 32.443L50.0099 33.0159L50.026 32.2975C50.0397 31.678 49.9554 31.4699 49.4135 30.7856C49.0678 30.3491 48.6856 29.9539 48.5641 29.9073C48.0018 29.692 48.4473 28.9997 49.3875 28.6283C50.0375 28.3715 50.1677 27.8725 49.7983 27.0547C49.3952 26.1623 49.0768 26.0123 47.4855 25.9654L46.1037 25.9247L46.0543 26.3537C45.9675 27.1093 46.4622 28.2919 46.9762 28.5572C47.6849 28.9231 47.5232 29.3809 46.567 29.7156C45.4707 30.0994 45.0698 30.0711 44.3876 29.561C43.5044 28.9005 43.3199 28.6849 42.308 27.1293C40.9108 24.9814 38.4232 22.6432 37.097 22.2315C36.7661 22.1288 36.7424 22.1595 36.7882 22.635C36.8317 23.0892 36.9014 23.1612 37.3781 23.2452L37.9186 23.3406L37.3928 23.3608C36.877 23.3807 36.8723 23.387 37.1464 23.6895C37.4427 24.0161 37.261 24.1276 36.9457 23.8128C36.8016 23.669 36.7554 23.746 36.7384 24.1596L36.7165 24.6915L36.6226 24.0749C36.5343 23.4951 36.4918 23.4527 35.911 23.3645L35.2932 23.2708L35.826 23.2489C36.2404 23.2319 36.3176 23.1858 36.1735 23.042C35.8581 22.7272 35.9698 22.5459 36.297 22.8416C36.6004 23.1157 36.6059 23.1109 36.6059 22.5732V22.0258L35.2546 21.7807C32.3923 21.2617 27.1884 21.0949 23.2507 21.3961ZM37.1318 22.8031L36.8376 23.1499L37.1851 22.8562C37.3762 22.6947 37.5325 22.5387 37.5325 22.5094C37.5325 22.3861 37.4082 22.4772 37.1318 22.8031ZM20.7239 24.1519C20.7078 24.703 20.6514 25.3155 20.5985 25.5131C20.5063 25.8569 20.4652 25.8369 19.6474 25.0507C18.8549 24.2888 18.828 24.2749 19.2766 24.8604C19.5429 25.2077 19.8675 25.5805 19.9982 25.6887C20.4399 26.0545 20.2396 26.156 19.0388 26.1741C18.1596 26.1876 17.9649 26.2236 18.3052 26.3101C18.5601 26.3749 19.0987 26.4361 19.5021 26.4461C19.9055 26.4561 20.2357 26.5139 20.2357 26.5746C20.2357 26.6352 19.9055 27.0249 19.5021 27.4407C19.0987 27.8563 18.9075 28.1245 19.0774 28.0367C19.2473 27.9488 19.6278 27.6263 19.9231 27.32C20.5728 26.646 20.6579 26.7612 20.7151 28.3912C20.7425 29.1736 20.7666 29.2796 20.8028 28.7766C20.8303 28.3951 20.8931 27.7794 20.9427 27.4085L21.0326 26.734L21.5994 27.2594C22.7054 28.2844 22.9266 28.3784 22.0889 27.4674L21.2395 26.5437L22.3831 26.4287C23.0121 26.3655 23.5622 26.2782 23.6058 26.2349C23.6492 26.1914 23.1519 26.156 22.5008 26.156C21.8495 26.156 21.3167 26.0986 21.3167 26.0286C21.3167 25.9586 21.4973 25.7333 21.718 25.5276C21.9387 25.3221 22.2622 24.9458 22.437 24.6915C22.639 24.3975 22.4412 24.5315 21.8939 25.0591L21.033 25.8894L20.9429 25.2133C20.8933 24.8415 20.8303 24.2252 20.8028 23.8436C20.7646 23.3129 20.7461 23.3853 20.7239 24.1519ZM35.9764 23.9592L35.6021 24.3832L36.0268 24.0095C36.4237 23.6602 36.5224 23.5353 36.4011 23.5353C36.3735 23.5353 36.1825 23.726 35.9764 23.9592ZM18.5369 30.6155C18.5369 30.6943 18.9293 31.0586 19.409 31.4249C20.0754 31.934 20.4558 32.3999 21.0222 33.4013C21.4876 34.2237 21.9248 34.7976 22.1964 34.9428C22.8387 35.2858 32.613 35.2858 33.2553 34.9428C33.5269 34.7976 33.9641 34.2237 34.4295 33.4013C34.9959 32.3999 35.3763 31.934 36.0427 31.4249C36.9809 30.7083 37.1123 30.4723 36.5732 30.4723C36.342 30.4723 35.7534 30.9707 34.7527 32.0139C33.9393 32.8617 33.1722 33.5659 33.048 33.5787C32.8514 33.5991 25.3393 33.6966 23.5053 33.7027C22.5535 33.7059 22.0469 33.3874 20.5412 31.8394C19.6681 30.9417 19.0956 30.4723 18.8742 30.4723C18.6887 30.4723 18.5369 30.5368 18.5369 30.6155ZM7.05256 33.1096C6.56222 33.8084 6.71743 34.3344 7.68776 35.2618C9.30347 36.8063 8.93344 36.6904 11.576 36.4802C13.6703 36.3138 13.9432 36.3205 14.2902 36.5475C15.1988 37.1417 14.5526 36.5632 13.0158 35.4067C11.0424 33.9214 9.13235 32.9248 8.06273 32.8221C7.39989 32.7586 7.27371 32.7944 7.05256 33.1096ZM46.6432 32.9513C46.2937 33.0799 46.2616 33.1627 46.3124 33.8019L46.3689 34.5103L46.9312 33.986C47.9281 33.0567 48.1327 32.9963 47.3392 33.8656L46.567 34.7116L47.3903 34.7586C48.3716 34.8147 48.6519 34.6288 48.6519 33.922C48.6519 32.9613 47.7721 32.5363 46.6432 32.9513ZM45.4474 33.4352C44.9944 33.6533 45.0082 33.7381 45.5632 34.1477L46.0265 34.4896V33.8684C46.0265 33.2054 45.9868 33.1756 45.4474 33.4352ZM43.2315 34.832C41.6859 35.9479 40.4406 36.9794 41.1453 36.5601C41.6059 36.286 41.7462 36.2869 45.0613 36.5886L46.0265 36.6763V36.0409C46.0265 35.6913 45.9919 35.4053 45.9498 35.4053C45.9075 35.4053 45.5947 35.6561 45.2548 35.9627C44.4774 36.6638 44.4442 36.4628 45.2085 35.6816L45.7804 35.097L44.9382 35.0816C43.4919 35.0552 43.1645 34.8214 44.5497 34.8041L45.7754 34.7887L45.3316 34.3262C45.0874 34.0719 44.8139 33.8659 44.7235 33.8685C44.6332 33.8712 43.9619 34.3048 43.2315 34.832ZM15.371 34.9949C17.5664 35.8063 18.0019 36.0791 18.6055 37.0209C18.9304 37.5277 19.2859 37.8946 19.4976 37.9413C20.5765 38.1792 28.0424 38.3244 31.6666 38.1778C33.8312 38.0904 35.7605 37.9839 35.954 37.9412C36.1658 37.8946 36.5213 37.5279 36.8462 37.0209C37.4498 36.0791 37.8853 35.8063 40.0807 34.9949C41.517 34.464 41.3423 34.444 39.1555 34.8887C37.8927 35.1456 36.7916 35.6518 35.8685 36.3996L35.2081 36.9345H27.7258H20.2436L19.5832 36.3996C18.6601 35.6518 17.559 35.1456 16.2962 34.8887C14.1094 34.444 13.9347 34.464 15.371 34.9949ZM46.8943 35.4887L47.1514 35.8804L47.5156 35.539C47.7159 35.351 47.8798 35.1748 47.8798 35.1473C47.8798 35.1197 47.6002 35.097 47.2585 35.097H46.6372L46.8943 35.4887ZM46.3354 35.9222C46.3354 36.4485 46.3566 36.4739 46.6443 36.2945C46.8141 36.1886 46.9531 36.06 46.9531 36.0087C46.9531 35.9575 46.8141 35.7899 46.6443 35.6365C46.3408 35.3623 46.3354 35.3672 46.3354 35.9222Z" fill="#152349"/>
<path d="M25.2518 7.86301V5.12329H25.8311V7.38543H27.0056V7.86301H25.2518Z" fill="#152349"/>
<path d="M28.0815 5.12329V7.86301H27.5022V5.12329H28.0815Z" fill="#152349"/>
<path d="M29.166 5.12329L29.8282 7.20484H29.8537L30.5172 5.12329H31.1593L30.2148 7.86301H29.4684L28.5226 5.12329H29.166Z" fill="#152349"/>
<path d="M31.6021 7.86301V5.12329H33.4482V5.60087H32.1813V6.25369H33.3532V6.73127H32.1813V7.38543H33.4535V7.86301H31.6021Z" fill="#152349"/>
<path d="M23.9589 6.43151C23.9589 6.97244 23.5204 7.41096 22.9795 7.41096C22.4385 7.41096 22 6.97244 22 6.43151C22 5.89057 22.4385 5.45205 22.9795 5.45205C23.5204 5.45205 23.9589 5.89057 23.9589 6.43151Z" fill="#152349"/>
<path fill-rule="evenodd" clip-rule="evenodd" d="M30.3086 13.1793C29.7068 13.6 29.9448 14.4809 30.6603 14.4809C31.3427 14.4809 31.602 13.6725 31.0728 13.1944C30.7279 12.8829 30.7324 12.883 30.3086 13.1793ZM19.0706 13.7802C18.8621 13.9883 18.6915 14.3005 18.6915 14.4739C18.6915 14.9031 19.2269 15.4058 19.6843 15.4058C20.5634 15.4058 20.9088 14.266 20.21 13.6715C19.7812 13.307 19.5197 13.3318 19.0706 13.7802ZM25.4031 14.1541C24.8326 14.4126 24.2623 14.9575 23.8651 15.6233C23.733 15.8447 23.6363 15.8562 23.1994 15.7027C22.4327 15.4337 21.1261 15.5942 20.4528 16.0401L19.8803 16.4194L19.1826 16.0668C16.93 14.9284 14.1407 16.5254 14.1407 18.9534C14.1407 19.7723 14.1104 19.8473 13.7205 19.9942C13.4783 20.0855 13.2604 20.3109 13.2062 20.5259C13.1282 20.8364 13.0365 20.888 12.6607 20.833C12.4124 20.7966 12.0453 20.8079 11.8451 20.858C11.3374 20.9852 10.6994 21.6625 10.5811 22.1999C10.4932 22.5995 10.4165 22.6511 9.91068 22.6511C9.24722 22.6511 8.69311 22.9886 8.4928 23.5146C8.38624 23.7942 8.23613 23.8844 7.87707 23.8844C7.11477 23.8844 6.18213 24.507 6.18213 25.016C6.18213 25.1352 6.83354 24.949 7.50503 24.6379C7.85035 24.4777 8.26733 24.3521 8.43165 24.3586C8.63226 24.3664 8.56909 24.4298 8.23953 24.5512C7.46627 24.8364 7.52758 24.8864 8.65079 24.8864C10.0321 24.8864 10.3534 25.1463 10.3482 26.2591C10.346 26.7232 10.1961 27.4048 9.98188 27.925C9.78234 28.4092 9.65663 28.8426 9.70235 28.8884C10.0946 29.28 11.0884 28.3911 12.2671 26.5947C12.821 25.7506 13.8165 24.5674 14.7746 23.6146C16.1518 22.2451 16.3117 22.0345 15.9754 22.0345C15.4097 22.0345 14.7178 22.4387 14.4545 22.9229C14.19 23.4096 14.1302 23.1549 14.3804 22.6067C14.642 22.0339 15.3759 21.6759 16.0924 21.7718C16.5457 21.8326 16.9233 21.7538 17.5475 21.4686C19.3024 20.6665 23.1232 20.1846 27.726 20.1846C32.5882 20.1846 36.2913 20.6849 38.1348 21.5908C39.4742 22.2491 41.9301 24.6823 43.1849 26.5947C44.3635 28.3911 45.3573 29.28 45.7496 28.8884C45.7953 28.8426 45.6696 28.4092 45.4701 27.925C44.9929 26.7666 44.9742 25.587 45.4264 25.18C45.7006 24.9332 45.9843 24.8881 47.2024 24.8973C47.9997 24.9032 48.6521 24.8489 48.6521 24.7766C48.6521 24.3875 48.1642 23.5864 47.6556 23.1409C47.137 22.6863 47.087 22.5782 47.176 22.1049C47.3953 20.9385 46.6571 19.615 45.4925 19.087C44.8523 18.7968 43.7188 18.7249 43.1696 18.9398C42.9779 19.0149 42.7382 18.9808 42.5378 18.8501C42.1577 18.6025 41.1845 18.521 40.5828 18.6864C40.2322 18.7827 40.1581 18.7541 40.1581 18.5227C40.1581 17.9333 39.3277 16.9423 38.4914 16.5334C37.7923 16.1918 37.5444 16.1476 36.7781 16.2274C35.9333 16.3156 35.8577 16.2953 35.4499 15.8704C34.8362 15.231 34.1366 14.9433 33.1953 14.9433C32.2767 14.9433 31.1897 15.3895 30.7769 15.9358C30.5532 16.2316 30.4578 16.2567 30.0868 16.1171C29.8501 16.0278 29.6564 15.8818 29.6564 15.7926C29.6564 15.4534 28.6484 14.4292 28.0458 14.1561C27.2452 13.7932 26.2008 13.7922 25.4031 14.1541ZM25.5459 14.7673C25.1963 14.9305 24.7273 15.3034 24.5035 15.5963C23.9877 16.2714 23.9741 16.5077 24.4827 15.96C25.5597 14.8001 27.4832 14.8211 28.7313 16.0062C29.441 16.68 29.5058 16.6349 28.9666 15.8427C28.1748 14.6796 26.7166 14.2211 25.5459 14.7673ZM35.8623 15.0589C35.8973 15.3639 35.9979 15.4829 36.22 15.4829C36.442 15.4829 36.5426 15.3639 36.5776 15.0589C36.6201 14.6914 36.5724 14.635 36.22 14.635C35.8675 14.635 35.8198 14.6914 35.8623 15.0589ZM32.423 15.399C31.7892 15.5906 31.2315 16.0135 30.8947 16.5576C30.4575 17.2635 30.5071 17.3696 31.0005 16.7841C32.0466 15.543 34.0208 15.5646 35.3319 16.8313C36.0754 17.5495 35.9412 17.0641 35.1775 16.2725C34.3329 15.397 33.4035 15.1023 32.423 15.399ZM20.7476 16.4772C20.2525 16.7786 19.828 17.3625 19.9879 17.5222C20.0354 17.5694 20.1191 17.4912 20.174 17.3483C20.4556 16.6158 22.5244 16.2234 23.4867 16.7201C24.1009 17.0371 24.0672 16.8647 23.4404 16.4832C22.7638 16.0714 21.4193 16.0684 20.7476 16.4772ZM16.4047 16.5388C15.6943 16.7958 14.8638 17.6509 14.6787 18.3161C14.4391 19.1777 14.5152 19.5779 14.7779 18.8372C15.3369 17.2609 17.5669 16.3759 19.0576 17.1387C19.2711 17.2478 19.3165 17.2379 19.2315 17.1009C19.0513 16.8097 17.8904 16.3366 17.3787 16.3458C17.1239 16.3505 16.6856 16.4373 16.4047 16.5388ZM42.5091 16.8791C41.8876 17.3135 42.1707 18.3348 42.9124 18.3348C43.4491 18.3348 43.7101 18.0804 43.7101 17.557C43.7101 17.1647 43.3027 16.639 42.9988 16.639C42.9182 16.639 42.6978 16.7471 42.5091 16.8791ZM28.4209 16.9045C28.0481 17.0442 27.3155 17.591 27.3949 17.6702C27.4349 17.7101 27.6484 17.6244 27.8696 17.4798C28.168 17.2846 28.4781 17.2367 29.074 17.2939C29.7489 17.3586 29.9463 17.4536 30.3149 17.8914C30.5888 18.2164 30.7125 18.2961 30.6447 18.1035C30.3358 17.2267 29.1977 16.613 28.4209 16.9045ZM36.9535 17.1063C36.4535 17.3068 36.5191 17.3418 37.2816 17.2814C38.1157 17.2151 38.8227 17.5546 39.2503 18.2267C39.5195 18.6497 39.549 18.6651 39.4568 18.3348C39.1671 17.2954 37.9594 16.7027 36.9535 17.1063ZM34.83 17.9244C34.5751 18.0394 34.2623 18.2588 34.1351 18.412C33.9128 18.6793 33.9235 18.6804 34.3976 18.4357C34.6696 18.2954 35.2172 18.1806 35.6149 18.1806C36.2439 18.1806 36.4056 18.2521 36.8581 18.7311C37.1441 19.0339 37.3782 19.2064 37.3782 19.1143C37.3782 19.0221 37.1523 18.7027 36.8763 18.4043C36.2962 17.7772 35.5465 17.6014 34.83 17.9244ZM20.11 18.1828C19.2517 18.3792 18.3783 19.4091 18.386 20.2155C18.3886 20.4852 18.4603 20.414 18.6859 19.9181C19.1701 18.8535 20.4704 18.2725 21.5969 18.6176C22.2886 18.8294 22.4144 18.7374 21.8331 18.4448C21.2004 18.1263 20.6934 18.0493 20.11 18.1828ZM12.4626 18.7459C12.2881 18.9201 12.3485 19.367 12.5716 19.5518C13.0065 19.9121 13.6309 19.2888 13.27 18.8547C13.0848 18.632 12.6371 18.5717 12.4626 18.7459ZM43.5943 19.5663C42.9373 19.966 42.9503 20.0931 43.6157 19.7764C44.3856 19.4098 45.1284 19.5971 45.7156 20.306L46.1899 20.8783L46.0109 20.3628C45.8117 19.7894 45.0787 19.2608 44.4823 19.2608C44.2699 19.2608 43.8704 19.3983 43.5943 19.5663ZM11.2864 21.8418C11.0333 22.075 10.7856 22.4738 10.7358 22.7282L10.6455 23.1907L10.8642 22.7208C11.2103 21.9773 11.7971 21.6798 12.76 21.7595C13.4573 21.8173 13.5418 21.7973 13.3182 21.6275C13.1731 21.5176 12.7603 21.4254 12.4007 21.4228C11.8977 21.419 11.6405 21.5158 11.2864 21.8418ZM6.81331 22.0632C6.54613 22.7515 7.41592 23.4415 7.86703 22.8992C7.97189 22.7729 8.03521 22.4748 8.00787 22.2364C7.96617 21.8726 7.87753 21.7956 7.45484 21.7549C7.0479 21.7157 6.92512 21.7747 6.81331 22.0632Z" fill="url(#paint0_linear_38_801)"/>
<defs>
<linearGradient id="paint0_linear_38_801" x1="27.4171" y1="12.9589" x2="27.4171" y2="28.9796" gradientUnits="userSpaceOnUse">
<stop stop-color="#5973BC"/>
<stop offset="1" stop-color="#3461E5"/>
</linearGradient>
</defs>
</svg>
