<svg width="50" height="50" viewBox="0 0 50 50" fill="none" xmlns="http://www.w3.org/2000/svg">
<path d="M19.2021 5.72918H34.2979C34.4799 5.72854 34.6591 5.7733 34.8194 5.8594C34.9796 5.9455 35.1159 6.07022 35.2158 6.22226C35.3157 6.3743 35.3761 6.54887 35.3916 6.73014C35.407 6.91142 35.377 7.09368 35.3042 7.26043L29.3979 21.0458H39.3542C39.4375 21.0467 39.5189 21.0714 39.5888 21.1169C39.6586 21.1625 39.7139 21.227 39.7483 21.303C39.7827 21.3789 39.7946 21.4631 39.7827 21.5456C39.7709 21.6282 39.7357 21.7056 39.6813 21.7688L19.3771 44.0833C19.3217 44.1662 19.2384 44.2264 19.1424 44.2531C19.0464 44.2798 18.944 44.2712 18.8538 44.2289C18.7636 44.1865 18.6915 44.1133 18.6507 44.0223C18.6098 43.9314 18.603 43.8289 18.6313 43.7333L20.6458 27.6083H11.325C11.144 27.6108 10.9652 27.5684 10.8046 27.4848C10.644 27.4013 10.5065 27.2793 10.4046 27.1297C10.3027 26.9801 10.2394 26.8075 10.2204 26.6275C10.2014 26.4474 10.2273 26.2655 10.2958 26.0979L18.1708 6.40626C18.2543 6.20236 18.3975 6.02842 18.5815 5.90723C18.7655 5.78604 18.9818 5.72534 19.2021 5.72918Z" stroke="white" stroke-width="3" stroke-linecap="round" stroke-linejoin="round"/>
</svg>
