<svg width="31" height="32" viewBox="0 0 31 32" fill="none" xmlns="http://www.w3.org/2000/svg">
<path d="M8.71622 6.93409C10.5915 5.09628 13.1164 4.0728 15.742 4.08606C18.3677 4.09933 20.8821 5.14825 22.7387 7.00491C24.5954 8.86157 25.6443 11.3759 25.6576 14.0016C25.6708 16.6273 24.6474 19.1521 22.8096 21.0274L17.5422 26.2948C17.0702 26.7666 16.4302 27.0317 15.7629 27.0317C15.0956 27.0317 14.4556 26.7666 13.9836 26.2948L8.71622 21.0274C6.84745 19.1585 5.79761 16.6237 5.79761 13.9808C5.79761 11.3378 6.84745 8.80305 8.71622 6.93409Z" stroke="#1E3A8A" stroke-width="1.67778" stroke-linejoin="round"/>
<path d="M15.7628 17.7558C17.8477 17.7558 19.5378 16.0657 19.5378 13.9808C19.5378 11.8959 17.8477 10.2058 15.7628 10.2058C13.6779 10.2058 11.9878 11.8959 11.9878 13.9808C11.9878 16.0657 13.6779 17.7558 15.7628 17.7558Z" stroke="#1E3A8A" stroke-width="1.67778" stroke-linecap="round" stroke-linejoin="round"/>
</svg>
