<svg width="33" height="33" viewBox="0 0 33 33" fill="none" xmlns="http://www.w3.org/2000/svg">
<path d="M8.92471 6.6316C10.9591 4.63791 13.6981 3.52762 16.5464 3.54201C19.3948 3.55639 22.1224 4.69429 24.1366 6.70843C26.1507 8.72256 27.2886 11.4502 27.303 14.2986C27.3174 17.1469 26.2071 19.8859 24.2134 21.9203L18.4993 27.6345C17.9873 28.1463 17.293 28.4338 16.5691 28.4338C15.8451 28.4338 15.1508 28.1463 14.6389 27.6345L8.92471 21.9203C6.89744 19.8928 5.75854 17.1431 5.75854 14.2759C5.75854 11.4088 6.89744 8.65908 8.92471 6.6316Z" stroke="white" stroke-width="2.42678" stroke-linejoin="round"/>
<path d="M16.5693 18.3712C18.831 18.3712 20.6645 16.5377 20.6645 14.276C20.6645 12.0143 18.831 10.1808 16.5693 10.1808C14.3076 10.1808 12.4741 12.0143 12.4741 14.276C12.4741 16.5377 14.3076 18.3712 16.5693 18.3712Z" stroke="white" stroke-width="2.42678" stroke-linecap="round" stroke-linejoin="round"/>
</svg>
