<svg width="50" height="50" viewBox="0 0 50 50" fill="none" xmlns="http://www.w3.org/2000/svg">
<path fill-rule="evenodd" clip-rule="evenodd" d="M15.8292 9.34792C16.3854 6.61875 18.8146 4.6875 21.5958 4.6875H28.4042C31.1854 4.6875 33.6125 6.61875 34.1708 9.34792C34.2324 9.64844 34.3932 9.91952 34.6275 10.1175C34.8618 10.3156 35.1559 10.429 35.4625 10.4396H35.5312C38.4542 10.5687 40.7 10.9271 42.575 12.1583C43.7562 12.9333 44.7729 13.9292 45.5646 15.0937C46.55 16.5396 46.9833 18.2021 47.1917 20.2104C47.3958 22.175 47.3958 24.6354 47.3958 27.7521V27.9292C47.3958 31.0458 47.3958 33.5083 47.1917 35.4708C46.9833 37.4792 46.55 39.1417 45.5646 40.5896C44.7686 41.7533 43.753 42.7504 42.575 43.525C41.1104 44.4854 39.4292 44.9104 37.3917 45.1125C35.3958 45.3125 32.8937 45.3125 29.7146 45.3125H20.2854C17.1062 45.3125 14.6042 45.3125 12.6083 45.1125C10.5708 44.9104 8.88957 44.4875 7.42499 43.525C6.24675 42.7498 5.23122 41.7519 4.43541 40.5875C3.44999 39.1417 3.01666 37.4792 2.80832 35.4708C2.60416 33.5083 2.60416 31.0458 2.60416 27.9292V27.7521C2.60416 24.6354 2.60416 22.175 2.80832 20.2104C3.01666 18.2021 3.44999 16.5396 4.43541 15.0937C5.23122 13.9293 6.24675 12.9315 7.42499 12.1562C9.29999 10.9271 11.5458 10.5687 14.4687 10.4417L14.5042 10.4396H14.5375C14.8441 10.429 15.1382 10.3156 15.3725 10.1175C15.6068 9.91952 15.7676 9.64844 15.8292 9.34792ZM21.5958 7.8125C20.2625 7.8125 19.1437 8.73542 18.8917 9.97083C18.4854 11.9708 16.7104 13.5458 14.575 13.5646C11.7667 13.6896 10.2625 14.0333 9.13749 14.7708C8.30301 15.3207 7.5834 16.0275 7.01874 16.8521C6.44374 17.6958 6.09791 18.7771 5.91457 20.5333C5.73124 22.3167 5.72916 24.6167 5.72916 27.8417C5.72916 31.0667 5.72916 33.3646 5.91666 35.1479C6.09791 36.9042 6.44374 37.9854 7.02082 38.8312C7.57916 39.6521 8.29791 40.3604 9.13957 40.9125C10.0083 41.4813 11.1208 41.825 12.9187 42.0042C14.7396 42.1854 17.0854 42.1875 20.3708 42.1875H29.6292C32.9125 42.1875 35.2583 42.1875 37.0812 42.0042C38.8792 41.825 39.9917 41.4833 40.8604 40.9125C41.7021 40.3604 42.4229 39.6521 42.9812 38.8292C43.5562 37.9854 43.9021 36.9042 44.0854 35.1479C44.2687 33.3646 44.2708 31.0646 44.2708 27.8417C44.2708 24.6187 44.2708 22.3167 44.0833 20.5333C43.9021 18.7771 43.5562 17.6958 42.9792 16.8521C42.4147 16.0268 41.6951 15.3192 40.8604 14.7688C39.7396 14.0333 38.2354 13.6896 35.4229 13.5646C33.2896 13.5437 31.5146 11.9729 31.1083 9.97083C30.975 9.35473 30.6331 8.80352 30.1404 8.41029C29.6478 8.01706 29.0345 7.80591 28.4042 7.8125H21.5958ZM25 22.3958C23.7568 22.3958 22.5645 22.8897 21.6854 23.7688C20.8064 24.6478 20.3125 25.8401 20.3125 27.0833C20.3125 28.3265 20.8064 29.5188 21.6854 30.3979C22.5645 31.277 23.7568 31.7708 25 31.7708C26.2432 31.7708 27.4355 31.277 28.3146 30.3979C29.1936 29.5188 29.6875 28.3265 29.6875 27.0833C29.6875 25.8401 29.1936 24.6478 28.3146 23.7688C27.4355 22.8897 26.2432 22.3958 25 22.3958ZM17.1875 27.0833C17.1875 25.0113 18.0106 23.0242 19.4757 21.5591C20.9408 20.0939 22.928 19.2708 25 19.2708C27.072 19.2708 29.0591 20.0939 30.5243 21.5591C31.9894 23.0242 32.8125 25.0113 32.8125 27.0833C32.8125 29.1553 31.9894 31.1425 30.5243 32.6076C29.0591 34.0727 27.072 34.8958 25 34.8958C22.928 34.8958 20.9408 34.0727 19.4757 32.6076C18.0106 31.1425 17.1875 29.1553 17.1875 27.0833ZM35.9375 20.8333C35.9375 20.4189 36.1021 20.0215 36.3951 19.7285C36.6882 19.4355 37.0856 19.2708 37.5 19.2708H39.5833C39.9977 19.2708 40.3952 19.4355 40.6882 19.7285C40.9812 20.0215 41.1458 20.4189 41.1458 20.8333C41.1458 21.2477 40.9812 21.6452 40.6882 21.9382C40.3952 22.2312 39.9977 22.3958 39.5833 22.3958H37.5C37.0856 22.3958 36.6882 22.2312 36.3951 21.9382C36.1021 21.6452 35.9375 21.2477 35.9375 20.8333Z" fill="white"/>
</svg>
