<svg width="31" height="31" viewBox="0 0 31 31" fill="none" xmlns="http://www.w3.org/2000/svg">
<path d="M3.96753 26.8902V24.3623C3.96753 23.0214 4.50019 21.7355 5.44834 20.7873C6.39648 19.8392 7.68244 19.3065 9.02332 19.3065H14.0791C15.42 19.3065 16.7059 19.8392 17.6541 20.7873C18.6022 21.7355 19.1349 23.0214 19.1349 24.3623V26.8902M20.3988 4.30347C21.4864 4.58192 22.4503 5.2144 23.1386 6.1012C23.827 6.988 24.2006 8.07867 24.2006 9.20127C24.2006 10.3239 23.827 11.4145 23.1386 12.3013C22.4503 13.1881 21.4864 13.8206 20.3988 14.0991M26.7186 26.8902V24.3623C26.7122 23.2464 26.3368 22.1641 25.6509 21.2838C24.965 20.4036 24.0072 19.7751 22.9267 19.4961M6.49542 9.19495C6.49542 10.5358 7.02808 11.8218 7.97623 12.7699C8.92437 13.7181 10.2103 14.2507 11.5512 14.2507C12.8921 14.2507 14.178 13.7181 15.1262 12.7699C16.0743 11.8218 16.607 10.5358 16.607 9.19495C16.607 7.85407 16.0743 6.56811 15.1262 5.61997C14.178 4.67182 12.8921 4.13916 11.5512 4.13916C10.2103 4.13916 8.92437 4.67182 7.97623 5.61997C7.02808 6.56811 6.49542 7.85407 6.49542 9.19495Z" stroke="white" stroke-width="2.42678" stroke-linecap="round" stroke-linejoin="round"/>
</svg>
