<svg width="31" height="31" viewBox="0 0 31 31" fill="none" xmlns="http://www.w3.org/2000/svg">
<path d="M15.6153 26.8901C17.1092 26.8901 18.5884 26.5959 19.9686 26.0242C21.3487 25.4526 22.6027 24.6146 23.659 23.5583C24.7154 22.502 25.5533 21.248 26.1249 19.8678C26.6966 18.4877 26.9909 17.0085 26.9909 15.5146C26.9909 14.0208 26.6966 12.5415 26.1249 11.1614C25.5533 9.78126 24.7154 8.52723 23.659 7.47091C22.6027 6.4146 21.3487 5.57668 19.9686 5.00501C18.5884 4.43334 17.1092 4.1391 15.6153 4.1391C12.5984 4.1391 9.70495 5.33759 7.57162 7.47091C5.4383 9.60424 4.23981 12.4976 4.23981 15.5146C4.23981 18.5316 5.4383 21.425 7.57162 23.5583C9.70495 25.6917 12.5984 26.8901 15.6153 26.8901ZM29.5187 15.5146C29.5187 23.1931 23.2938 29.418 15.6153 29.418C7.93685 29.418 1.71191 23.1931 1.71191 15.5146C1.71191 7.83615 7.93685 1.61121 15.6153 1.61121C23.2938 1.61121 29.5187 7.83615 29.5187 15.5146ZM19.4072 21.0937L14.3514 16.0379V7.29897H16.8793V14.9913L21.1944 19.3065L19.4072 21.0937Z" fill="white"/>
</svg>
